<?xml version="1.0" encoding="UTF-8"?>
<svg id="Layer_1" xmlns="http://www.w3.org/2000/svg" xmlns:xlink="http://www.w3.org/1999/xlink" version="1.1" viewBox="0 0 64 64">
  <!-- Generator: Adobe Illustrator 29.2.1, SVG Export Plug-In . SVG Version: 2.1.0 Build 116)  -->
  <defs>
    <style>
      .st0 {
        fill: url(#linear-gradient);
      }
    </style>
    <linearGradient id="linear-gradient" x1="1358.3" y1="-2630.9" x2="1560.5" y2="-2514.1" gradientTransform="translate(-404.9 -744.6) scale(.3 -.3)" gradientUnits="userSpaceOnUse">
      <stop offset="0" stop-color="#f38ab8"/>
      <stop offset="1" stop-color="#0069b4"/>
    </linearGradient>
  </defs>
  <path class="st0" d="M61,27.5c0,13.2-12.9,23.8-28.8,23.8s-24,17.1-20.7,6.3c2.2-7.1,4.1-10.4,1.5-12.3-5.9-4.3-9.6-10.7-9.6-17.7C3.4,14.4,16.3,3.8,32.2,3.8s28.8,10.7,28.8,23.8h0Z"/>
  <path d="M43.8,32.2c0,1.8-.5,3.4-1.4,4.8-.9,1.4-2.3,2.5-4,3.3s-3.9,1.2-6.3,1.2-5.3-.6-7.2-1.7c-1.3-.8-2.4-1.8-3.2-3.1s-1.3-2.6-1.3-3.8.2-1.3.7-1.9,1.1-.8,1.9-.8,1.1.2,1.6.6c.5.4.8,1,1.1,1.8.4.9.8,1.7,1.2,2.3.5.6,1,1.1,1.8,1.5.8.4,1.8.6,3.1.6s3.2-.4,4.3-1.3,1.7-1.8,1.7-3.1-.3-1.8-.9-2.4c-.6-.6-1.4-1.1-2.3-1.4s-2.2-.7-3.7-1c-2.1-.5-3.9-1.1-5.3-1.7s-2.6-1.5-3.4-2.7c-.9-1.1-1.3-2.6-1.3-4.3s.5-3.1,1.3-4.3,2.2-2.2,3.8-2.9c1.7-.7,3.6-1,5.9-1s3.4.2,4.7.7,2.4,1,3.2,1.8,1.5,1.5,1.9,2.3.6,1.6.6,2.4-.2,1.4-.7,1.9-1.1.9-1.9.9-1.2-.2-1.5-.5c-.3-.3-.7-.9-1.1-1.7-.5-1.1-1.2-2-1.9-2.6-.7-.6-1.9-.9-3.6-.9s-2.8.3-3.7,1-1.4,1.5-1.4,2.4.2,1.1.5,1.5.7.8,1.3,1.1,1.1.6,1.7.7,1.5.5,2.8.7c1.7.4,3.1.8,4.5,1.3s2.5,1,3.4,1.7,1.7,1.5,2.2,2.5c.5,1,.8,2.3.8,3.7h0c0,0,0,.1,0,.1Z"/>
</svg>