<?xml version="1.0" encoding="UTF-8"?>
<svg id="Layer_1" xmlns="http://www.w3.org/2000/svg" xmlns:xlink="http://www.w3.org/1999/xlink" version="1.1" viewBox="0 0 300 300" width="300" height="300">
  <!-- Generator: Adobe Illustrator 29.2.1, SVG Export Plug-In . SVG Version: 2.1.0 Build 116)  -->
  <defs>
    <style>
      .st0 {
        fill: url(#linear-gradient);
      }
    </style>
    <linearGradient id="linear-gradient" x1="591.7" y1="-933.7" x2="1317.7" y2="-514.4" gradientTransform="translate(-113.7 -99.1) scale(.3 -.3)" gradientUnits="userSpaceOnUse">
      <stop offset="0" stop-color="#f38ab8"/>
      <stop offset="1" stop-color="#0069b4"/>
    </linearGradient>
  </defs>
  <path class="st0" d="M257.7,88.7c0,43.5-48.2,78.7-107.7,78.7s-89.9,56.6-77.5,20.7c8.1-23.6,15.2-34.5,5.7-40.7-22.1-14.4-35.9-35.4-35.9-58.6,0-43.5,48.2-78.7,107.7-78.7s107.7,35.3,107.7,78.7Z"/>
  <g>
    <path d="M56.5,238.5c0,3.1-.8,5.9-2.4,8.4-1.6,2.5-4,4.4-7,5.8s-6.8,2.1-11,2.1-9.3-1-12.6-2.9c-2.3-1.4-4.2-3.2-5.7-5.5-1.5-2.3-2.2-4.6-2.2-6.7s.4-2.3,1.3-3.3,2-1.4,3.4-1.4,2,.4,2.8,1.1c.8.7,1.4,1.7,2,3.1.7,1.6,1.4,3,2.1,4.1.8,1.1,1.8,2,3.2,2.7,1.4.7,3.2,1.1,5.4,1.1s5.6-.7,7.5-2.2,2.9-3.2,2.9-5.4-.5-3.1-1.6-4.2c-1-1.1-2.4-1.9-4-2.4s-3.9-1.2-6.6-1.8c-3.7-.9-6.8-1.9-9.3-3s-4.5-2.7-5.9-4.7c-1.5-2-2.2-4.5-2.2-7.5s.8-5.4,2.3-7.6,3.8-3.9,6.7-5.1c2.9-1.2,6.4-1.8,10.3-1.8s5.9.4,8.2,1.2c2.3.8,4.2,1.8,5.7,3.1,1.5,1.3,2.6,2.7,3.3,4.1s1.1,2.8,1.1,4.2-.4,2.4-1.3,3.4-2,1.5-3.3,1.5-2.1-.3-2.7-.9c-.6-.6-1.3-1.6-2-2.9-.9-1.9-2.1-3.5-3.4-4.6-1.3-1.1-3.4-1.6-6.3-1.6s-4.9.6-6.5,1.8-2.5,2.6-2.5,4.3.3,1.9.8,2.7,1.3,1.4,2.3,1.9,2,1,3,1.3c1,.3,2.7.8,5,1.3,2.9.7,5.5,1.4,7.9,2.2s4.4,1.8,6,3,2.9,2.7,3.9,4.4c.9,1.8,1.4,4,1.4,6.6Z"/>
    <path d="M73.5,221.2v1.2c1.8-2.2,3.7-3.9,5.6-4.9,1.9-1,4.1-1.6,6.6-1.6s5.7.8,8.2,2.3c2.5,1.5,4.4,3.8,5.9,6.7s2.2,6.4,2.2,10.4-.4,5.7-1.2,8.1c-.8,2.5-2,4.5-3.4,6.2-1.5,1.7-3.2,3-5.2,3.9-2,.9-4.1,1.4-6.4,1.4s-5-.6-6.9-1.7-3.6-2.7-5.3-4.9v14.4c0,4.2-1.5,6.3-4.6,6.3s-3-.5-3.6-1.6c-.6-1.1-.9-2.7-.9-4.8v-41.4c0-1.8.4-3.2,1.2-4.1.8-.9,1.9-1.4,3.3-1.4s2.5.5,3.3,1.4c.9.9,1.3,2.3,1.3,4ZM92.3,235.2c0-2.5-.4-4.7-1.2-6.5s-1.8-3.2-3.2-4.2-2.9-1.5-4.6-1.5c-2.6,0-4.9,1-6.7,3.1-1.8,2.1-2.7,5.2-2.7,9.2s.9,6.8,2.7,8.9c1.8,2.1,4,3.2,6.7,3.2s3.1-.5,4.4-1.4c1.4-.9,2.4-2.3,3.3-4.2.8-1.9,1.2-4.1,1.2-6.7Z"/>
    <path d="M136.5,237.7h-18.8c0,2.2.5,4.1,1.3,5.8.9,1.7,2,2.9,3.4,3.8,1.4.8,3,1.3,4.7,1.3s2.2-.1,3.1-.4,1.9-.7,2.8-1.3c.9-.6,1.7-1.2,2.5-1.8.8-.7,1.7-1.5,2.9-2.7.5-.4,1.2-.6,2.1-.6s1.8.3,2.4.8c.6.5.9,1.3.9,2.3s-.3,1.9-1,3c-.7,1.2-1.7,2.3-3.1,3.3s-3.1,2-5.2,2.7-4.5,1.1-7.2,1.1c-6.2,0-11-1.8-14.4-5.3-3.4-3.5-5.1-8.3-5.1-14.3s.4-5.5,1.3-7.9,2.1-4.5,3.7-6.2,3.6-3.1,6-4c2.4-.9,5-1.4,7.9-1.4s7,.8,9.7,2.4c2.7,1.6,4.7,3.6,6,6.1s2,5.1,2,7.7-.7,4-2.1,4.7c-1.4.7-3.3,1.1-5.8,1.1ZM117.7,232.3h17.4c-.2-3.3-1.1-5.7-2.7-7.4-1.5-1.6-3.6-2.4-6.1-2.4s-4.4.8-5.9,2.5c-1.5,1.7-2.5,4.1-2.8,7.3Z"/>
    <path d="M176.7,249.5c-2.3,1.8-4.6,3.2-6.7,4.1s-4.6,1.4-7.3,1.4-4.6-.5-6.5-1.5-3.3-2.3-4.3-4-1.5-3.5-1.5-5.4.8-4.9,2.5-6.7,3.9-3.1,6.9-3.7c.6-.1,2.1-.5,4.5-.9s4.5-.9,6.2-1.4,3.6-.9,5.6-1.5c-.1-2.5-.6-4.4-1.5-5.6s-2.8-1.8-5.6-1.8-4.3.3-5.5,1-2.3,1.7-3.2,3.1-1.5,2.3-1.9,2.7-1.1.7-2.3.7-2-.3-2.8-1-1.2-1.6-1.2-2.7c0-1.7.6-3.3,1.8-4.9s3.1-2.9,5.6-3.9,5.7-1.5,9.5-1.5,7.5.5,9.9,1.5,4.1,2.6,5.1,4.7,1.5,5,1.5,8.6,0,4.2,0,5.7,0,3.3,0,5.2c0,1.8.3,3.7.9,5.6s.9,3.2.9,3.8c0,1-.5,1.9-1.4,2.7s-2,1.2-3.1,1.2-2-.5-2.9-1.4-2-2.3-3.1-4ZM176.1,235.6c-1.4.5-3.5,1.1-6.1,1.6s-4.5,1-5.6,1.3-2,.8-3,1.6-1.4,1.9-1.4,3.3.6,2.7,1.7,3.7,2.5,1.5,4.3,1.5,3.7-.4,5.3-1.2,2.8-1.9,3.5-3.2c.9-1.5,1.3-3.8,1.3-7.2v-1.4Z"/>
    <path d="M219.2,250.5l-8.5-13.9-5.2,4.9v7.6c0,1.9-.5,3.3-1.5,4.3s-2.1,1.5-3.4,1.5-2.6-.5-3.5-1.5-1.3-2.4-1.3-4.4v-40.9c0-2.1.4-3.8,1.2-4.9s2-1.7,3.5-1.7,2.6.5,3.5,1.5,1.3,2.5,1.3,4.5v23.3l10.8-11.3c1.3-1.4,2.4-2.4,3.1-2.9s1.6-.8,2.6-.8,2.2.4,3,1.1,1.2,1.7,1.2,2.9-1.3,3.3-3.9,5.6l-5.1,4.7,9.8,15.5c.7,1.1,1.2,2,1.6,2.6s.5,1.2.5,1.7c0,1.5-.4,2.7-1.2,3.6s-1.9,1.3-3.3,1.3-2.1-.3-2.7-.9-1.5-1.8-2.6-3.4Z"/>
    <path d="M234.7,249v-41.6c0-1.9.4-3.4,1.3-4.4s2-1.5,3.5-1.5,2.6.5,3.5,1.5,1.3,2.4,1.3,4.4v41.6c0,1.9-.5,3.4-1.4,4.4s-2.1,1.5-3.5,1.5-2.5-.5-3.4-1.5-1.3-2.4-1.3-4.3Z"/>
    <path d="M263.1,256.1l.9-2.1-11.8-29.7c-.7-1.7-1.1-3-1.1-3.7s.2-1.6.6-2.3,1-1.3,1.7-1.7,1.5-.6,2.3-.6c1.4,0,2.4.4,3.1,1.3s1.3,2.1,1.9,3.8l8.1,23.6,7.7-22c.6-1.8,1.2-3.2,1.7-4.2s1-1.7,1.6-2,1.3-.5,2.3-.5,1.4.2,2.1.6,1.2.9,1.5,1.6.5,1.3.5,2.1c0,.4-.2,1.1-.5,1.9s-.5,1.7-.8,2.5l-12.5,32.8c-1.1,2.9-2.1,5.1-3.2,6.8s-2.4,2.9-4.1,3.8-4,1.3-6.9,1.3-4.9-.3-6.3-.9-2.1-1.7-2.1-3.3.3-2,1-2.5,1.7-.9,3-.9,1,0,1.5.2c.6.1,1.1.2,1.6.2,1.1,0,2-.2,2.6-.5s1.2-.9,1.7-1.7,1.1-2,1.7-3.6Z"/>
  </g>
</svg>